<?xml version="1.0" encoding="utf-8"?>
<!-- Generator: Adobe Illustrator 16.0.0, SVG Export Plug-In . SVG Version: 6.00 Build 0)  -->
<!DOCTYPE svg PUBLIC "-//W3C//DTD SVG 1.1//EN" "http://www.w3.org/Graphics/SVG/1.1/DTD/svg11.dtd">
<svg version="1.1" id="Layer_1" xmlns="http://www.w3.org/2000/svg" xmlns:xlink="http://www.w3.org/1999/xlink" x="0px" y="0px"
	 width="200px" height="100px" viewBox="0 0 200 100" enable-background="new 0 0 200 100" xml:space="preserve">
<g>
	<g id="XMLID_1_">
		<g>
			<path fill="#FFFFFF" d="M59.82,59.99c0,4.64-3.71,8.49-8.36,8.55c-5.19,0.08-10.37,0.02-15.56,0.02c-0.06,0-0.13-0.02-0.28-0.04
				c0-2.819,0-5.609,0-8.319c1.26,0.42,2.5,0.96,3.79,1.24c6.04,1.31,12.27-2.87,13.38-8.95c0.17-0.91,0.24-1.84,0.25-2.76
				c0.03-5.56,0.02-11.11,0.03-16.67c0-0.29,0-0.58,0-0.95c1.85,0.41,3.29,1.27,4.47,2.56c1.5,1.64,2.27,3.59,2.27,5.81
				C59.83,46.98,59.83,53.48,59.82,59.99z"/>
			<path fill="#FFFFFF" d="M136.23,54.57c1.069,2.33,3.859,2.84,5.56,1.029c0.79-0.83,1.09-1.859,1.1-3
				c-0.04-0.39-0.069-0.779-0.14-1.17c-0.31-1.5-1.6-2.709-3.03-2.86c-1.47-0.16-2.85,0.65-3.5,2.1
				C135.65,51.96,135.64,53.29,136.23,54.57z M145.99,40.31c0.58-0.03,0.7,0.21,0.7,0.73c-0.021,5.99-0.021,11.99,0,17.979
				c0,0.551-0.181,0.73-0.721,0.7c-0.859-0.04-1.72-0.029-2.569,0c-0.46,0.011-0.631-0.149-0.601-0.609
				c0.03-0.38,0.01-0.761,0.01-1.341c-0.279,0.23-0.43,0.311-0.529,0.431c-2.21,2.64-6.36,2.14-8.391-0.13
				c-2.02-2.261-2.3-4.931-1.649-7.75c0.609-2.68,2.24-4.43,5-4.95c1.88-0.35,3.58,0.07,4.97,1.48c0.12,0.12,0.271,0.22,0.41,0.34
				c0.06-0.03,0.13-0.05,0.189-0.07c0-0.22,0-0.45,0-0.67c0-1.8,0.011-3.61-0.01-5.41c-0.01-0.53,0.12-0.76,0.69-0.73
				C144.33,40.36,145.16,40.36,145.99,40.31z"/>
			<path fill="#FFFFFF" d="M154.14,51.55c0.83,0,1.66,0,2.5,0c0.551,0,1.11,0.03,1.66,0c0.46-0.03,0.92-0.13,1.38-0.2
				c-0.149-0.5-0.279-1-0.449-1.5c-0.04-0.12-0.141-0.23-0.23-0.34c-0.78-1-1.98-1.39-3.16-1.03c-1.08,0.34-2.12,1.57-2.22,2.63
				C153.57,51.54,153.84,51.55,154.14,51.55z M151.14,57.18c-2.87-3.84-1.21-9.88,3.13-11.49c4.341-1.63,8.7,1.13,9.15,5.81
				c0.061,0.6,0.04,1.2,0.08,1.8c0.04,0.53-0.19,0.66-0.7,0.66c-2.77-0.03-5.55-0.02-8.319-0.02c-0.91,0-0.98,0.119-0.601,0.96
				c0.8,1.79,2.95,2.55,4.96,1.699c0.48-0.199,0.9-0.569,1.37-0.8c0.2-0.09,0.55-0.13,0.7-0.02c0.63,0.5,1.21,1.06,1.859,1.649
				c-1.22,1.53-2.75,2.32-4.56,2.521C155.38,60.26,152.91,59.54,151.14,57.18z"/>
			<path fill="#FFFFFF" d="M167.87,55.75c1.09,0.64,2.22,1.16,3.51,1.23c0.32,0.02,0.65,0.02,0.96-0.04
				c0.53-0.101,0.98-0.37,1.07-0.95c0.09-0.57-0.271-0.94-0.73-1.141c-0.66-0.279-1.35-0.479-2.02-0.72
				c-0.74-0.27-1.49-0.51-2.2-0.85c-1.39-0.66-2.16-1.771-2.19-3.34c-0.029-1.66,0.58-2.99,2.04-3.85
				c1.54-0.91,3.221-0.92,4.91-0.57c1.19,0.24,2.3,0.67,3.351,1.41c-0.5,0.92-0.96,1.75-1.42,2.61c-0.74-0.32-1.41-0.68-2.131-0.89
				c-0.659-0.2-1.35-0.3-2.039-0.33c-0.561-0.02-1.061,0.26-1.2,0.87c-0.141,0.61,0.31,0.96,0.779,1.17c0.841,0.37,1.73,0.64,2.58,1
				c0.71,0.29,1.41,0.59,2.07,0.97c2.75,1.64,1.94,5.87-0.479,6.96c-2.54,1.15-5.011,0.79-7.44-0.34c-0.58-0.271-1.1-0.65-1.73-1.03
				c0.561-0.89,1.08-1.7,1.631-2.57C167.45,55.5,167.66,55.63,167.87,55.75z"/>
			<path fill="#FFFFFF" d="M120.84,53.8c-0.81,0.36-1.109,1.061-1.01,1.94c0.09,0.72,0.62,1.359,1.46,1.46
				c0.7,0.08,1.45,0.08,2.11-0.11c1.069-0.3,1.77-1.03,1.899-2.22c0.08-0.71-0.16-1.11-0.87-1.22c-0.569-0.091-1.13-0.2-1.83-0.33
				C122.07,53.46,121.42,53.54,120.84,53.8z M124.67,58.61c-1.61,1.43-4.3,1.8-6.25,0.859c-1.66-0.81-2.46-2.229-2.34-4.2
				c0.12-1.84,1.1-3.159,2.82-3.729c1.84-0.6,3.689-0.55,5.54-0.06c0.8,0.21,0.899,0.119,0.739-0.701
				c-0.21-1.19-1.08-1.93-2.38-2.05c-1.52-0.13-2.99,0.12-4.53,0.71c-0.31-0.95-0.619-1.85-0.89-2.77c-0.02-0.09,0.19-0.3,0.32-0.36
				c2.5-1.01,5.08-1.28,7.68-0.56c2.18,0.6,3.311,2.21,3.45,4.38c0.15,2.29,0.08,4.58,0.11,6.87c0.01,0.72-0.021,1.44,0.02,2.15
				c0.01,0.43-0.14,0.58-0.56,0.569c-0.83-0.02-1.67-0.04-2.5,0c-0.561,0.03-0.771-0.16-0.69-0.71c0.03-0.2,0.01-0.399,0.01-0.8
				C124.92,58.43,124.79,58.51,124.67,58.61z"/>
			<path fill="#FFFFFF" d="M107.18,59.72c-0.47,0.021-0.66-0.12-0.66-0.62c0.021-4.31,0.021-8.609,0.011-12.919
				c0-0.46,0.1-0.68,0.62-0.66c0.88,0.03,1.76,0.02,2.64,0c0.45-0.01,0.61,0.16,0.59,0.61c-0.02,0.63,0,1.26,0,1.9
				c0.07,0.01,0.14,0.03,0.21,0.05c0.12-0.2,0.25-0.39,0.36-0.59c0.689-1.26,1.729-2.02,3.17-2.21c0.55-0.07,0.82,0.03,0.8,0.66
				c-0.05,0.95-0.03,1.9,0,2.85c0.01,0.41-0.13,0.56-0.55,0.6c-2.25,0.22-3.65,1.48-3.851,3.72c-0.18,1.909-0.14,3.84-0.13,5.76
				c0.011,0.66-0.17,0.899-0.85,0.85C108.76,59.67,107.97,59.69,107.18,59.72z"/>
			<path fill="#FFFFFF" d="M95.16,45.52c1.04,0.01,1.05-0.02,1.05-1.08c0-0.67,0.01-1.34-0.02-2.01c-0.02-0.41,0.09-0.6,0.53-0.59
				c0.93,0.02,1.85,0.02,2.78,0c0.44-0.01,0.55,0.18,0.54,0.59c-0.02,0.76,0.04,1.53-0.01,2.28c-0.05,0.67,0.23,0.86,0.85,0.83
				c0.62-0.04,1.24,0,1.87-0.02c0.43-0.01,0.64,0.12,0.63,0.59c-0.02,0.74-0.01,1.48,0,2.22c0,0.38-0.16,0.54-0.55,0.53
				c-0.69-0.02-1.39,0.02-2.08-0.01c-0.54-0.03-0.73,0.19-0.72,0.73c0.02,1.78,0,3.56,0.01,5.34c0.01,1.21,0.54,1.69,1.74,1.57
				c0.5-0.05,0.979-0.2,1.55-0.32c0,0.93,0.02,1.83-0.021,2.72c-0.01,0.181-0.239,0.41-0.42,0.49c-1.54,0.69-3.13,0.8-4.72,0.21
				c-1.28-0.47-1.83-1.55-1.88-2.83c-0.09-2.26-0.07-4.529-0.08-6.79c-0.01-1.08,0-1.1-1.1-1.1c-0.5,0-0.65-0.2-0.63-0.66
				c0.03-0.67,0.04-1.35,0-2.01C94.46,45.68,94.64,45.51,95.16,45.52z"/>
			<path fill="#FFFFFF" d="M88.28,59.72c-0.41,0.011-0.57-0.13-0.57-0.56c0.01-6.09,0.02-12.17,0-18.25c0-0.47,0.16-0.61,0.61-0.59
				c0.78,0.02,1.57,0.05,2.35-0.01c0.7-0.05,0.92,0.16,0.91,0.88c-0.04,2.96-0.02,5.92-0.02,8.88c0.01,2.94-0.01,5.88,0.02,8.81
				c0,0.62-0.13,0.89-0.81,0.84C89.94,59.67,89.11,59.7,88.28,59.72z"/>
			<path fill="#FFFFFF" d="M74.18,45.35c0.02,0.77,0.01,1.53,0.01,2.29c0,0.79-0.03,1.58,0.02,2.36c0.02,0.2,0.31,0.55,0.49,0.56
				c1.1,0.04,2.22,0.08,3.32-0.02c1.72-0.15,2.87-1.45,2.81-3.03c-0.07-1.62-1.25-2.73-3.02-2.8c-1-0.04-1.99,0-2.98-0.02
				C74.33,44.67,74.17,44.89,74.18,45.35z M70.84,59.72c-0.49,0.011-0.63-0.16-0.62-0.649c0.02-2.9,0.01-5.79,0.01-8.68
				c0-2.87,0.01-5.74-0.01-8.61c0-0.48,0.12-0.65,0.61-0.65c2.5,0.02,5.01-0.04,7.5,0.04c2.32,0.07,4.31,0.89,5.57,2.97
				c2.43,3.99,0.07,9.04-4.59,9.75c-1.43,0.221-2.9,0.181-4.36,0.2c-0.56,0.01-0.78,0.18-0.77,0.76c0.03,1.391-0.02,2.78,0.02,4.17
				c0.02,0.561-0.19,0.721-0.72,0.7C72.6,59.69,71.72,59.69,70.84,59.72z"/>
			<path fill="#FFFFFF" d="M40.35,51.23c-1.38,0.029-2.76,0.01-4.18-0.12c3.7-1.64,7.4-3.28,11.29-5c-2.2,2.88-4.27,5.6-6.33,8.31
				c-0.05-0.02-0.1-0.04-0.15-0.06c0-0.83-0.02-1.66,0.01-2.49C41.01,51.38,40.82,51.22,40.35,51.23z"/>
			<path fill="#FFFFFF" d="M30.12,68.38c-2.5-0.62-4.31-1.93-5.58-4c-0.84-1.37-1.23-2.87-1.22-4.49c0.01-6.449,0-12.91,0.02-19.36
				c0.01-4.87,3.73-8.61,8.61-8.65c4.95-0.04,9.9-0.01,14.85-0.01c0.36,0,0.72-0.03,0.72,0.5c-0.01,2.63-0.01,5.27-0.01,7.82
				c-1.26-0.42-2.5-0.95-3.79-1.24c-6.29-1.37-12.79,3.35-13.48,9.74c-0.07,0.71-0.11,1.43-0.12,2.15c0,5.53,0,11.061,0,16.58
				C30.12,67.7,30.12,67.97,30.12,68.38z"/>
		</g>
		<g>
		</g>
	</g>
</g>
</svg>
